<svg width="18" height="16" viewBox="0 0 18 16" fill="none" xmlns="http://www.w3.org/2000/svg">
<path d="M5.12772 1.0346C6.30964 0.344866 7.60038 0 8.99993 0C10.3995 0 11.6902 0.344866 12.8721 1.0346C14.0541 1.72433 14.9899 2.66016 15.6796 3.84208C16.3694 5.024 16.7142 6.31473 16.7142 7.71429C16.7142 9.11384 16.3694 10.4046 15.6796 11.5865C14.9899 12.7684 14.0541 13.7042 12.8721 14.394C11.6902 15.0837 10.3995 15.4286 8.99993 15.4286C7.60038 15.4286 6.30964 15.0837 5.12772 14.394C3.9458 13.7042 3.00997 12.7684 2.32024 11.5865C1.63051 10.4046 1.28564 9.11384 1.28564 7.71429C1.28564 6.31473 1.63051 5.024 2.32024 3.84208C3.00997 2.66016 3.9458 1.72433 5.12772 1.0346ZM11.7522 5.23326C11.7388 5.23995 11.707 5.27176 11.6567 5.32868C11.6065 5.3856 11.5613 5.41741 11.5211 5.42411C11.5345 5.42411 11.5496 5.40737 11.5663 5.37388C11.5831 5.3404 11.5998 5.30357 11.6166 5.26339C11.6333 5.22321 11.645 5.19978 11.6517 5.19308C11.6919 5.14621 11.7656 5.09598 11.8727 5.04241C11.9664 5.00223 12.1406 4.96205 12.395 4.92188C12.6227 4.8683 12.7935 4.90513 12.9073 5.03237C12.8939 5.01897 12.9257 4.97545 13.0027 4.90179C13.0797 4.82812 13.1283 4.78795 13.1484 4.78125C13.1685 4.76786 13.2187 4.75279 13.299 4.73605C13.3794 4.71931 13.4296 4.6942 13.4497 4.66071L13.4698 4.43973C13.3894 4.44643 13.3308 4.42299 13.294 4.36942C13.2572 4.31585 13.2354 4.24554 13.2287 4.15848C13.2287 4.17188 13.2086 4.19866 13.1685 4.23884C13.1685 4.19196 13.1534 4.16518 13.1233 4.15848C13.0931 4.15179 13.0546 4.15513 13.0077 4.16853C12.9609 4.18192 12.9307 4.18527 12.9173 4.17857C12.8504 4.15848 12.8002 4.13337 12.7667 4.10324C12.7332 4.0731 12.7064 4.01786 12.6863 3.9375C12.6662 3.85714 12.6528 3.80692 12.6461 3.78683C12.6327 3.75335 12.6009 3.71652 12.5507 3.67634C12.5005 3.63616 12.4687 3.60268 12.4553 3.57589C12.4486 3.5625 12.4402 3.54408 12.4302 3.52065C12.4201 3.49721 12.4101 3.47545 12.4 3.45536C12.39 3.43527 12.3766 3.41685 12.3599 3.40011C12.3431 3.38337 12.3247 3.375 12.3046 3.375C12.2845 3.375 12.2611 3.39174 12.2343 3.42522C12.2075 3.45871 12.1824 3.49219 12.159 3.52567C12.1355 3.55915 12.1205 3.57589 12.1138 3.57589C12.0937 3.5625 12.0736 3.55748 12.0535 3.56083C12.0334 3.56417 12.0183 3.56752 12.0083 3.57087C11.9983 3.57422 11.9832 3.58426 11.9631 3.601C11.943 3.61775 11.9263 3.62946 11.9129 3.63616C11.8928 3.64955 11.8643 3.6596 11.8275 3.66629C11.7907 3.67299 11.7622 3.67969 11.7421 3.68638C11.8426 3.6529 11.8392 3.61607 11.7321 3.57589C11.6651 3.54911 11.6115 3.53906 11.5714 3.54576C11.6316 3.51897 11.6567 3.47879 11.6467 3.42522C11.6366 3.37165 11.6082 3.32478 11.5613 3.2846H11.6115C11.6048 3.25781 11.5764 3.22935 11.5262 3.19922C11.4759 3.16908 11.4173 3.14062 11.3504 3.11384C11.2834 3.08705 11.2399 3.06696 11.2198 3.05357C11.1662 3.02009 11.0524 2.98828 10.8783 2.95815C10.7042 2.92801 10.5937 2.92634 10.5468 2.95312C10.5133 2.9933 10.4983 3.02846 10.5016 3.05859C10.505 3.08873 10.5183 3.1356 10.5418 3.19922C10.5652 3.26283 10.5769 3.30469 10.5769 3.32478C10.5836 3.36496 10.5652 3.40848 10.5217 3.45536C10.4782 3.50223 10.4564 3.54241 10.4564 3.57589C10.4564 3.62277 10.5033 3.67467 10.597 3.73158C10.6908 3.7885 10.7243 3.86049 10.6975 3.94754C10.6774 4.00112 10.6238 4.05469 10.5368 4.10826C10.4497 4.16183 10.3961 4.20201 10.376 4.22879C10.3426 4.28237 10.3375 4.34431 10.361 4.41462C10.3844 4.48493 10.4196 4.54018 10.4664 4.58036C10.4798 4.59375 10.4849 4.60714 10.4815 4.62054C10.4782 4.63393 10.4664 4.649 10.4464 4.66574C10.4263 4.68248 10.4079 4.69587 10.3911 4.70591C10.3744 4.71596 10.3526 4.72768 10.3258 4.74107L10.2957 4.76116C10.222 4.79464 10.1534 4.77455 10.0898 4.70089C10.0262 4.62723 9.98096 4.54018 9.95417 4.43973C9.9073 4.27232 9.85372 4.17188 9.79346 4.13839C9.63944 4.08482 9.54234 4.08817 9.50216 4.14844C9.46868 4.06138 9.3314 3.97433 9.09033 3.88728C8.92292 3.82701 8.72872 3.81362 8.50774 3.8471C8.54792 3.8404 8.54792 3.79018 8.50774 3.69643C8.46087 3.59598 8.39725 3.5558 8.31689 3.57589C8.33698 3.53571 8.35038 3.47712 8.35707 3.40011C8.36377 3.3231 8.36712 3.2779 8.36712 3.26451C8.38721 3.17746 8.42739 3.10045 8.48765 3.03348C8.49435 3.02679 8.51779 2.99833 8.55797 2.9481C8.59814 2.89788 8.62995 2.85268 8.65339 2.8125C8.67683 2.77232 8.6785 2.75223 8.65841 2.75223C8.89279 2.77902 9.0602 2.74219 9.16064 2.64174C9.19413 2.60826 9.23263 2.55134 9.27616 2.47098C9.31968 2.39062 9.35484 2.33371 9.38163 2.30022C9.44189 2.26004 9.48877 2.24163 9.52225 2.24498C9.55573 2.24833 9.60428 2.26674 9.6679 2.30022C9.73151 2.33371 9.78006 2.35045 9.81355 2.35045C9.9073 2.35714 9.95919 2.32031 9.96924 2.23996C9.97928 2.1596 9.95417 2.09263 9.8939 2.03906C9.97426 2.04576 9.9843 1.98884 9.92404 1.8683C9.89725 1.82143 9.87047 1.79129 9.84368 1.7779C9.76332 1.75112 9.67292 1.76786 9.57247 1.82812C9.5189 1.85491 9.5256 1.8817 9.59256 1.90848C9.58587 1.90179 9.55406 1.93694 9.49714 2.01395C9.44022 2.09096 9.38498 2.14955 9.3314 2.18973C9.27783 2.22991 9.22426 2.21317 9.17069 2.13951C9.16399 2.13281 9.14558 2.08761 9.11544 2.00391C9.08531 1.9202 9.0535 1.875 9.02002 1.8683C8.96645 1.8683 8.91288 1.91853 8.85931 2.01897C8.87939 1.9654 8.84256 1.91518 8.74881 1.8683C8.65506 1.82143 8.57471 1.79464 8.50774 1.78795C8.63497 1.70759 8.60819 1.61719 8.42739 1.51674C8.38051 1.48996 8.31187 1.47321 8.22147 1.46652C8.13107 1.45982 8.06578 1.47321 8.0256 1.5067C7.99212 1.55357 7.9737 1.59208 7.97035 1.62221C7.96701 1.65234 7.98375 1.67913 8.02058 1.70257C8.05741 1.726 8.09256 1.74442 8.12605 1.75781C8.15953 1.77121 8.19803 1.7846 8.24156 1.79799C8.28509 1.81138 8.31355 1.82143 8.32694 1.82812C8.42069 1.89509 8.44747 1.94196 8.4073 1.96875C8.3939 1.97545 8.36544 1.98717 8.32192 2.00391C8.27839 2.02065 8.23989 2.03571 8.2064 2.04911C8.17292 2.0625 8.15283 2.07589 8.14614 2.08929C8.12605 2.11607 8.12605 2.16295 8.14614 2.22991C8.16622 2.29688 8.15953 2.34375 8.12605 2.37054C8.09256 2.33705 8.06243 2.27846 8.03564 2.19475C8.00886 2.11105 7.98542 2.0558 7.96533 2.02902C8.01221 2.08929 7.9285 2.10938 7.71422 2.08929L7.61377 2.07924C7.58698 2.07924 7.53341 2.08594 7.45306 2.09933C7.3727 2.11272 7.30406 2.11607 7.24714 2.10938C7.19022 2.10268 7.14502 2.07589 7.11154 2.02902C7.08475 1.97545 7.08475 1.90848 7.11154 1.82812C7.11823 1.80134 7.13163 1.79464 7.15172 1.80804C7.12493 1.78795 7.0881 1.75614 7.04122 1.71261C6.99435 1.66908 6.96087 1.64062 6.94078 1.62723C6.63274 1.72768 6.31801 1.86496 5.99658 2.03906C6.03676 2.04576 6.07694 2.04241 6.11712 2.02902C6.1506 2.01562 6.19413 1.99386 6.2477 1.96373C6.30127 1.93359 6.33475 1.91518 6.34814 1.90848C6.57582 1.81473 6.71645 1.79129 6.77002 1.83817L6.82024 1.78795C6.91399 1.89509 6.98096 1.97879 7.02114 2.03906C6.97426 2.01228 6.87381 2.00893 6.7198 2.02902C6.58587 2.0692 6.51221 2.10938 6.49881 2.14955C6.54569 2.22991 6.56243 2.29018 6.54904 2.33036C6.52225 2.31027 6.48375 2.27679 6.43352 2.22991C6.3833 2.18304 6.33475 2.14621 6.28788 2.11942C6.241 2.09263 6.19078 2.07589 6.13721 2.0692C6.03006 2.0692 5.9564 2.07254 5.91622 2.07924C4.93855 2.61496 4.15172 3.35826 3.55573 4.30915C3.60261 4.35603 3.64279 4.38281 3.67627 4.38951C3.70306 4.3962 3.7198 4.42634 3.72649 4.47991C3.73319 4.53348 3.74156 4.57031 3.7516 4.5904C3.76165 4.61049 3.80015 4.60045 3.86712 4.56027C3.92739 4.61384 3.93743 4.67746 3.89725 4.75112C3.90395 4.74442 4.05127 4.83482 4.33922 5.02232C4.46645 5.13616 4.53676 5.20647 4.55015 5.23326C4.57024 5.30692 4.53676 5.36719 4.44971 5.41406C4.44301 5.40067 4.41288 5.37054 4.35931 5.32366C4.30573 5.27679 4.2756 5.26339 4.2689 5.28348C4.24881 5.31696 4.25049 5.37891 4.27393 5.46931C4.29736 5.55971 4.33252 5.60156 4.37939 5.59487C4.33252 5.59487 4.30071 5.64844 4.28397 5.75558C4.26723 5.86272 4.25886 5.98158 4.25886 6.11216C4.25886 6.24275 4.25551 6.32143 4.24881 6.34821L4.2689 6.35826C4.24881 6.43862 4.26723 6.55413 4.32415 6.7048C4.38107 6.85547 4.45306 6.92076 4.54011 6.90067C4.45306 6.92076 4.52002 7.06473 4.741 7.33259C4.78118 7.38616 4.80797 7.4163 4.82136 7.42299C4.84145 7.43638 4.88163 7.4615 4.94189 7.49833C5.00216 7.53516 5.05239 7.56864 5.09256 7.59877C5.13274 7.62891 5.16622 7.66406 5.19301 7.70424C5.2198 7.73772 5.25328 7.81306 5.29346 7.93025C5.33364 8.04743 5.38051 8.12612 5.43408 8.1663C5.42069 8.20647 5.4525 8.27344 5.52951 8.36719C5.60651 8.46094 5.64167 8.53795 5.63497 8.59821C5.62828 8.59821 5.61991 8.60156 5.60986 8.60826C5.59982 8.61496 5.59145 8.6183 5.58475 8.6183C5.60484 8.66518 5.65674 8.71205 5.74044 8.75893C5.82415 8.8058 5.87605 8.84933 5.89614 8.88951C5.90283 8.9096 5.90953 8.94308 5.91622 8.98995C5.92292 9.03683 5.93297 9.07366 5.94636 9.10045C5.95975 9.12723 5.98654 9.13393 6.02672 9.12054C6.04011 8.98661 5.95975 8.77902 5.78564 8.49777C5.6852 8.33036 5.62828 8.23326 5.61489 8.20647C5.5948 8.17299 5.57638 8.12109 5.55964 8.05078C5.5429 7.98047 5.52783 7.93192 5.51444 7.90513C5.52783 7.90513 5.54792 7.91016 5.57471 7.9202C5.60149 7.93025 5.62995 7.94196 5.66009 7.95536C5.69022 7.96875 5.71533 7.98214 5.73542 7.99554C5.75551 8.00893 5.76221 8.01897 5.75551 8.02567C5.73542 8.07255 5.74212 8.13114 5.7756 8.20145C5.80908 8.27176 5.84926 8.3337 5.89614 8.38728C5.94301 8.44085 5.99993 8.50446 6.06689 8.57812C6.13386 8.65179 6.17404 8.69531 6.18743 8.7087C6.22761 8.74888 6.27448 8.81417 6.32806 8.90458C6.38163 8.99498 6.38163 9.04018 6.32806 9.04018C6.38832 9.04018 6.45529 9.07533 6.52895 9.14565C6.60261 9.21596 6.65953 9.28125 6.69971 9.34152C6.73319 9.39509 6.75997 9.48214 6.78006 9.60268C6.80015 9.72321 6.81689 9.80357 6.83029 9.84375C6.84368 9.89062 6.87214 9.93583 6.91567 9.97935C6.95919 10.0229 7.00105 10.0547 7.04122 10.0748C7.0814 10.0949 7.13497 10.1217 7.20194 10.1551C7.2689 10.1886 7.31243 10.2121 7.33252 10.2254C7.366 10.2388 7.42794 10.274 7.51835 10.3309C7.60875 10.3878 7.68073 10.4263 7.73431 10.4464C7.80127 10.4732 7.85484 10.4866 7.89502 10.4866C7.9352 10.4866 7.98375 10.4782 8.04067 10.4615C8.09759 10.4448 8.14279 10.433 8.17627 10.4263C8.27672 10.4129 8.37381 10.4632 8.46756 10.577C8.56131 10.6908 8.63163 10.7612 8.6785 10.7879C8.91957 10.9152 9.10372 10.952 9.23096 10.8984C9.21756 10.9051 9.21924 10.9302 9.23598 10.9738C9.25272 11.0173 9.27951 11.0692 9.31634 11.1295C9.35317 11.1897 9.3833 11.2383 9.40674 11.2751C9.43018 11.3119 9.44859 11.3404 9.46198 11.3605C9.49547 11.4007 9.55573 11.4509 9.64279 11.5112C9.72984 11.5714 9.79011 11.6217 9.82359 11.6618C9.86377 11.635 9.88721 11.6049 9.8939 11.5714C9.87381 11.625 9.89725 11.692 9.96422 11.7723C10.0312 11.8527 10.0914 11.8862 10.145 11.8728C10.2388 11.8527 10.2856 11.7455 10.2856 11.5513C10.0781 11.6518 9.91399 11.5915 9.79346 11.3705C9.79346 11.3638 9.78509 11.3454 9.76835 11.3153C9.75161 11.2852 9.73821 11.2567 9.72817 11.2299C9.71812 11.2031 9.70975 11.1747 9.70306 11.1445C9.69636 11.1144 9.69636 11.0893 9.70306 11.0692C9.70975 11.0491 9.72649 11.0391 9.75328 11.0391C9.81355 11.0391 9.84703 11.0273 9.85372 11.0039C9.86042 10.9805 9.85372 10.9386 9.83364 10.8783C9.81355 10.8181 9.80015 10.7746 9.79346 10.7478C9.78676 10.6942 9.74993 10.6272 9.68297 10.5469C9.616 10.4665 9.57582 10.4163 9.56243 10.3962C9.52895 10.4565 9.47538 10.4833 9.40172 10.4766C9.32806 10.4699 9.27448 10.4397 9.241 10.3862C9.241 10.3929 9.23598 10.4113 9.22593 10.4414C9.21589 10.4715 9.21087 10.4933 9.21087 10.5067C9.12381 10.5067 9.07359 10.5033 9.0602 10.4967C9.06689 10.4766 9.07526 10.418 9.08531 10.3209C9.09535 10.2238 9.10707 10.1484 9.12047 10.0949C9.12716 10.0681 9.14558 10.0279 9.17571 9.97433C9.20585 9.92076 9.23096 9.87221 9.25105 9.82868C9.27114 9.78516 9.28453 9.7433 9.29122 9.70312C9.29792 9.66295 9.28285 9.63114 9.24602 9.6077C9.20919 9.58426 9.1506 9.57589 9.07024 9.58259C8.94301 9.58929 8.85596 9.65625 8.80908 9.78348C8.80239 9.80357 8.79234 9.83873 8.77895 9.88895C8.76556 9.93917 8.74881 9.97768 8.72872 10.0045C8.70864 10.0312 8.6785 10.0547 8.63832 10.0748C8.59145 10.0949 8.51109 10.1016 8.39725 10.0949C8.28341 10.0882 8.20306 10.0714 8.15618 10.0446C8.06913 9.99107 7.99379 9.89397 7.93018 9.75335C7.86656 9.61272 7.83475 9.48884 7.83475 9.3817C7.83475 9.31473 7.84312 9.226 7.85986 9.11551C7.8766 9.00502 7.88665 8.92132 7.89 8.8644C7.89335 8.80748 7.87493 8.72545 7.83475 8.6183C7.85484 8.60491 7.88497 8.5731 7.92515 8.52288C7.96533 8.47266 7.99881 8.4375 8.0256 8.41741C8.03899 8.41071 8.05406 8.40569 8.0708 8.40234C8.08754 8.399 8.10261 8.399 8.116 8.40234C8.12939 8.40569 8.14279 8.40067 8.15618 8.38728C8.16957 8.37388 8.17962 8.3538 8.18631 8.32701C8.17962 8.32031 8.16622 8.31027 8.14614 8.29688C8.12605 8.27679 8.11265 8.26674 8.10596 8.26674C8.15283 8.28683 8.24826 8.28181 8.39223 8.25167C8.5362 8.22154 8.62828 8.22656 8.66846 8.26674C8.7689 8.3404 8.84256 8.3337 8.88944 8.24665C8.88944 8.23995 8.88107 8.20815 8.86433 8.15123C8.84759 8.09431 8.84591 8.04911 8.85931 8.01562C8.89279 8.19643 8.98989 8.22656 9.1506 8.10603C9.17069 8.12612 9.22259 8.14286 9.30629 8.15625C9.39 8.16964 9.44859 8.18638 9.48207 8.20647C9.50216 8.21987 9.5256 8.23828 9.55239 8.26172C9.57917 8.28516 9.59759 8.30022 9.60763 8.30692C9.61768 8.31362 9.63442 8.31194 9.65785 8.3019C9.68129 8.29185 9.70975 8.27009 9.74323 8.23661C9.8102 8.33036 9.85038 8.41071 9.86377 8.47768C9.93743 8.74554 10.001 8.89286 10.0546 8.91964C10.1015 8.93973 10.1383 8.94643 10.1651 8.93973C10.1919 8.93304 10.207 8.90123 10.2103 8.84431C10.2137 8.78739 10.2137 8.74051 10.2103 8.70368C10.207 8.66685 10.2019 8.625 10.1952 8.57812L10.1852 8.49777C10.1852 8.4375 10.1852 8.37723 10.1852 8.31696L10.1752 8.23661C10.0747 8.21652 10.0128 8.17634 9.98933 8.11607C9.96589 8.0558 9.97091 7.99386 10.0044 7.93025C10.0379 7.86663 10.0881 7.80469 10.1551 7.74442C10.1618 7.73772 10.1885 7.726 10.2354 7.70926C10.2823 7.69252 10.3342 7.67076 10.3911 7.64397C10.448 7.61719 10.4899 7.5904 10.5167 7.56362C10.6573 7.43638 10.7075 7.3192 10.6673 7.21205C10.7142 7.21205 10.751 7.18192 10.7778 7.12165C10.7711 7.12165 10.7544 7.11161 10.7276 7.09152C10.7008 7.07143 10.6757 7.05469 10.6523 7.04129C10.6288 7.0279 10.6138 7.02121 10.6071 7.02121C10.6673 6.98772 10.674 6.93415 10.6272 6.86049C10.6606 6.8404 10.6858 6.80357 10.7025 6.75C10.7192 6.69643 10.7443 6.66295 10.7778 6.64955C10.8381 6.72991 10.9084 6.73661 10.9888 6.66964C11.0423 6.61607 11.0457 6.5625 10.9988 6.50893C11.0323 6.46205 11.1009 6.4269 11.2047 6.40346C11.3085 6.38002 11.3705 6.34821 11.3906 6.30804C11.4374 6.32143 11.4642 6.31473 11.4709 6.28795C11.4776 6.26116 11.481 6.22098 11.481 6.16741C11.481 6.11384 11.491 6.07366 11.5111 6.04688C11.5379 6.01339 11.5881 5.98326 11.6618 5.95647C11.7354 5.92969 11.7789 5.91295 11.7923 5.90625L11.9631 5.79576C11.9832 5.76897 11.9832 5.75558 11.9631 5.75558C12.0836 5.76897 12.1874 5.73214 12.2745 5.64509C12.3414 5.57143 12.3214 5.50446 12.2142 5.4442C12.2343 5.40402 12.2243 5.37221 12.1841 5.34877C12.1439 5.32534 12.0937 5.30692 12.0334 5.29353C12.0535 5.28683 12.092 5.28516 12.1489 5.2885C12.2058 5.29185 12.241 5.28683 12.2544 5.27344C12.3548 5.20647 12.3314 5.1529 12.1841 5.11272C12.0702 5.07924 11.9263 5.11942 11.7522 5.23326ZM10.1149 14.0424C11.4943 13.8013 12.6696 13.1685 13.6406 12.144C13.6205 12.1239 13.5786 12.1088 13.515 12.0988C13.4514 12.0887 13.4095 12.077 13.3894 12.0636C13.2689 12.0167 13.1885 11.99 13.1484 11.9833C13.1551 11.9364 13.1467 11.8929 13.1233 11.8527C13.0998 11.8125 13.073 11.7824 13.0429 11.7623C13.0128 11.7422 12.9709 11.7154 12.9173 11.6819C12.8638 11.6484 12.8269 11.625 12.8068 11.6116C12.7935 11.5982 12.77 11.5781 12.7365 11.5513C12.7031 11.5246 12.6796 11.5061 12.6662 11.4961C12.6528 11.486 12.6277 11.471 12.5909 11.4509C12.5541 11.4308 12.5256 11.4241 12.5055 11.4308C12.4854 11.4375 12.4519 11.4408 12.4051 11.4408L12.3749 11.4509C12.3548 11.4576 12.3364 11.466 12.3197 11.476C12.3029 11.486 12.2845 11.4961 12.2644 11.5061C12.2444 11.5162 12.231 11.5262 12.2243 11.5363C12.2176 11.5463 12.2176 11.5547 12.2243 11.5614C12.0836 11.4475 11.9631 11.3739 11.8627 11.3404C11.8292 11.3337 11.7923 11.3153 11.7522 11.2852C11.712 11.255 11.6768 11.2316 11.6467 11.2148C11.6166 11.1981 11.5831 11.1931 11.5462 11.1998C11.5094 11.2065 11.4709 11.2299 11.4307 11.2701C11.3973 11.3036 11.3772 11.3538 11.3705 11.4208C11.3638 11.4877 11.3571 11.5312 11.3504 11.5513C11.3035 11.5179 11.3035 11.4593 11.3504 11.3756C11.3973 11.2919 11.4039 11.2299 11.3705 11.1897C11.3504 11.1496 11.3152 11.1345 11.265 11.1445C11.2148 11.1546 11.1746 11.1696 11.1445 11.1897C11.1143 11.2098 11.0758 11.2383 11.0289 11.2751C10.9821 11.3119 10.9519 11.3337 10.9385 11.3404C10.9252 11.3471 10.8967 11.3655 10.8532 11.3956C10.8096 11.4258 10.7812 11.4509 10.7678 11.471C10.7477 11.4978 10.7276 11.5379 10.7075 11.5915C10.6874 11.6451 10.6707 11.6819 10.6573 11.702C10.6439 11.6752 10.6054 11.6535 10.5418 11.6367C10.4782 11.62 10.4464 11.6016 10.4464 11.5815C10.4598 11.6484 10.4731 11.7656 10.4865 11.933C10.4999 12.1004 10.5167 12.2277 10.5368 12.3147C10.5836 12.5223 10.5435 12.683 10.4162 12.7969C10.2354 12.9643 10.1383 13.0982 10.1249 13.1987C10.0981 13.346 10.1383 13.433 10.2455 13.4598C10.2455 13.5067 10.2187 13.5753 10.1651 13.6657C10.1115 13.7561 10.0881 13.8281 10.0948 13.8817C10.0948 13.9219 10.1015 13.9754 10.1149 14.0424Z" fill="#969696"/>
</svg>
